<?xml version="1.0" encoding="UTF-8" standalone="no"?>
<!-- Created with Inkscape (http://www.inkscape.org/) -->

<svg
   xmlns:dc="http://purl.org/dc/elements/1.1/"
   xmlns:cc="http://creativecommons.org/ns#"
   xmlns:rdf="http://www.w3.org/1999/02/22-rdf-syntax-ns#"
   xmlns:svg="http://www.w3.org/2000/svg"
   xmlns="http://www.w3.org/2000/svg"
   version="1.1"
   width="744.09448"
   height="1052.3622"
   id="svg2">
  <defs
     id="defs4" />
  <metadata
     id="metadata7">
    <rdf:RDF>
      <cc:Work
         rdf:about="">
        <dc:format>image/svg+xml</dc:format>
        <dc:type
           rdf:resource="http://purl.org/dc/dcmitype/StillImage" />
        <dc:title></dc:title>
      </cc:Work>
    </rdf:RDF>
  </metadata>
  <g
     id="layer1">
    <path
       d="m 100.71429,93.790749 126.42857,0 c 14.30644,0 28.10224,11.111681 28.10224,11.111681 0,0 13.57144,9.14081 17.61205,19.60261 l 0,190 c 0,7.51857 -6.05285,13.57143 -13.57143,13.57143 l -158.57143,0 c -7.51857,0 -13.57143,-6.05286 -13.57143,-13.57143 l 0,-207.14286 c 0,-7.518572 6.05286,-13.571431 13.57143,-13.571431 z"
       id="rect2985"
       style="fill:#ffffff;fill-opacity:1;stroke:#000000;stroke-width:12;stroke-linecap:butt;stroke-linejoin:miter;stroke-miterlimit:4;stroke-opacity:1;stroke-dashoffset:0" />
    <path
       d="m 226.42857,95.93361 c 15,24.28572 -4.28572,47.14286 -4.28572,47.14286 27.92012,-1.04683 39.07315,-7.41152 50.71429,-22.85715"
       id="path3757"
       style="fill:none;stroke:#000000;stroke-width:12;stroke-linecap:butt;stroke-linejoin:miter;stroke-miterlimit:4;stroke-opacity:1;stroke-dasharray:none" />
    <path
       d="m 409.96875,110.16129 c -4.10053,0 -7.40625,5.30532 -7.40625,11.90625 l 0,21.53125 -21.53125,0 c -6.60093,0 -11.90625,3.30572 -11.90625,7.40625 l 0,11.09375 c 0,4.10053 5.30532,7.40625 11.90625,7.40625 l 21.53125,0 0,21.53125 c 0,6.60092 3.30572,11.92187 7.40625,11.92187 l 11.09375,0 c 4.10053,0 7.40625,-5.32095 7.40625,-11.92187 l 0,-21.53125 21.53125,0 c 6.60092,0 11.90625,-3.30572 11.90625,-7.40625 l 0,-11.09375 c 0,-4.10053 -5.30533,-7.40625 -11.90625,-7.40625 l -21.53125,0 0,-21.53125 c 0,-6.60093 -3.30572,-11.90625 -7.40625,-11.90625 l -11.09375,0 z"
       id="rect3811"
       style="fill:#ffffff;fill-opacity:1;stroke:#000000;stroke-width:4.09410381;stroke-linecap:square;stroke-linejoin:miter;stroke-miterlimit:4;stroke-opacity:1;stroke-dasharray:none;stroke-dashoffset:0" />
    <path
       d="m 117.73136,216.50764 0,45.85454 -46.354639,0 0,35.52656 46.354639,0 0,45.85454 35.914,0 0,-45.85454 46.35464,0 0,-35.52656 -46.35464,0 0,-45.85454 -35.914,0 z"
       id="rect3811-7-2"
       style="fill:#00ff00;fill-opacity:1;stroke:#000000;stroke-width:12;stroke-linecap:square;stroke-linejoin:miter;stroke-miterlimit:4;stroke-opacity:1;stroke-dasharray:none;stroke-dashoffset:0" />
    <rect
       width="185.71429"
       height="234.28572"
       ry="13.571434"
       x="382.85715"
       y="413.79077"
       id="rect3959"
       style="fill:#ffffff;fill-opacity:1;stroke:#000000;stroke-width:12;stroke-linecap:butt;stroke-linejoin:miter;stroke-miterlimit:4;stroke-opacity:1;stroke-dasharray:none;stroke-dashoffset:0" />
    <path
       d="m 413.44564,536.50765 0,45.85454 -46.35463,0 0,35.52656 46.35463,0 0,45.85454 35.914,0 0,-45.85454 46.35464,0 0,-35.52656 -46.35464,0 0,-45.85454 -35.914,0 z"
       id="path3963"
       style="fill:#00ff00;fill-opacity:1;stroke:#000000;stroke-width:12;stroke-linecap:square;stroke-linejoin:miter;stroke-miterlimit:4;stroke-opacity:1;stroke-dasharray:none;stroke-dashoffset:0" />
  </g>
</svg>
