<?xml version="1.0" encoding="UTF-8" standalone="no"?>
<!-- Created with Inkscape (http://www.inkscape.org/) -->

<svg
   xmlns:dc="http://purl.org/dc/elements/1.1/"
   xmlns:cc="http://creativecommons.org/ns#"
   xmlns:rdf="http://www.w3.org/1999/02/22-rdf-syntax-ns#"
   xmlns:svg="http://www.w3.org/2000/svg"
   xmlns="http://www.w3.org/2000/svg"
   xmlns:sodipodi="http://sodipodi.sourceforge.net/DTD/sodipodi-0.dtd"
   xmlns:inkscape="http://www.inkscape.org/namespaces/inkscape"
   width="744.09448819"
   height="1052.3622047"
   id="svg2"
   version="1.1"
   inkscape:version="0.48.3.1 r9886"
   sodipodi:docname="icons.svg">
  <defs
     id="defs4">
    <marker
       inkscape:stockid="EmptyTriangleInL"
       orient="auto"
       refY="0.0"
       refX="0.0"
       id="EmptyTriangleInL"
       style="overflow:visible">
      <path
         id="path4372"
         d="M 5.77,0.0 L -2.88,5.0 L -2.88,-5.0 L 5.77,0.0 z "
         style="fill-rule:evenodd;fill:#FFFFFF;stroke:#000000;stroke-width:1.0pt"
         transform="scale(-0.8) translate(-6,0)" />
    </marker>
  </defs>
  <sodipodi:namedview
     id="base"
     pagecolor="#ffffff"
     bordercolor="#666666"
     borderopacity="1.0"
     inkscape:pageopacity="0.0"
     inkscape:pageshadow="2"
     inkscape:zoom="0.54383995"
     inkscape:cx="439.9837"
     inkscape:cy="828.28436"
     inkscape:document-units="px"
     inkscape:current-layer="layer1"
     showgrid="true"
     inkscape:snap-bbox="false"
     showguides="true"
     inkscape:window-width="1366"
     inkscape:window-height="719"
     inkscape:window-x="0"
     inkscape:window-y="29"
     inkscape:window-maximized="1"
     inkscape:snap-global="false"
     inkscape:guide-bbox="true">
    <inkscape:grid
       type="xygrid"
       id="grid3831" />
  </sodipodi:namedview>
  <metadata
     id="metadata7">
    <rdf:RDF>
      <cc:Work
         rdf:about="">
        <dc:format>image/svg+xml</dc:format>
        <dc:type
           rdf:resource="http://purl.org/dc/dcmitype/StillImage" />
        <dc:title></dc:title>
      </cc:Work>
    </rdf:RDF>
  </metadata>
  <g
     inkscape:label="Layer 1"
     inkscape:groupmode="layer"
     id="layer1">
    <path
       style="fill:#ffffff;fill-opacity:1;stroke:#000000;stroke-width:12;stroke-linecap:butt;stroke-linejoin:miter;stroke-miterlimit:4;stroke-opacity:1;stroke-dashoffset:0"
       d="m 81.211122,75.587792 126.428568,0 c 14.30644,0 28.10224,11.111681 28.10224,11.111681 0,0 13.57144,9.14081 17.61205,19.602607 l 0,190 c 0,7.51857 -6.05285,13.57143 -13.57143,13.57143 l -158.571428,0 c -7.51857,0 -13.57143,-6.05286 -13.57143,-13.57143 l 0,-207.142857 c 0,-7.518572 6.05286,-13.571431 13.57143,-13.571431 z"
       id="rect2985"
       inkscape:connector-curvature="0"
       sodipodi:nodetypes="ssccssssss" />
    <path
       style="fill:none;stroke:#000000;stroke-width:12;stroke-linecap:butt;stroke-linejoin:miter;stroke-miterlimit:4;stroke-opacity:1;stroke-dasharray:none"
       d="m 206.9254,77.730653 c 15,24.285717 -4.28572,47.142857 -4.28572,47.142857 27.92012,-1.04683 39.07315,-7.41152 50.71429,-22.85715"
       id="path3757"
       inkscape:connector-curvature="0"
       sodipodi:nodetypes="ccc" />
    <path
       style="fill:#ffffff;fill-opacity:1;stroke:#000000;stroke-width:4.09410381;stroke-linecap:square;stroke-linejoin:miter;stroke-miterlimit:4;stroke-opacity:1;stroke-dasharray:none;stroke-dashoffset:0"
       d="m 396.96664,142.66657 c -4.10053,0 -7.40625,5.30532 -7.40625,11.90625 l 0,21.53125 -21.53125,0 c -6.60093,0 -11.90625,3.30572 -11.90625,7.40625 l 0,11.09375 c 0,4.10053 5.30532,7.40625 11.90625,7.40625 l 21.53125,0 0,21.53125 c 0,6.60092 3.30572,11.92187 7.40625,11.92187 l 11.09375,0 c 4.10053,0 7.40625,-5.32095 7.40625,-11.92187 l 0,-21.53125 21.53125,0 c 6.60092,0 11.90625,-3.30572 11.90625,-7.40625 l 0,-11.09375 c 0,-4.10053 -5.30533,-7.40625 -11.90625,-7.40625 l -21.53125,0 0,-21.53125 c 0,-6.60093 -3.30572,-11.90625 -7.40625,-11.90625 l -11.09375,0 z"
       id="rect3811"
       inkscape:connector-curvature="0" />
    <path
       style="fill:#00ff00;fill-opacity:1;stroke:#000000;stroke-width:12;stroke-linecap:square;stroke-linejoin:miter;stroke-miterlimit:4;stroke-opacity:1;stroke-dasharray:none;stroke-dashoffset:0"
       d="m 98.228192,198.30468 0,45.85454 -46.354639,0 0,35.52656 46.354639,0 0,45.85454 35.913998,0 0,-45.85454 46.35464,0 0,-35.52656 -46.35464,0 0,-45.85454 -35.913998,0 z"
       id="rect3811-7-2"
       inkscape:connector-curvature="0" />
    <rect
       ry="13.571434"
       y="400.91934"
       x="66.587624"
       height="234.28572"
       width="185.71429"
       id="rect3959"
       style="fill:#ffffff;fill-opacity:1;stroke:#000000;stroke-width:12;stroke-linecap:butt;stroke-linejoin:miter;stroke-miterlimit:4;stroke-opacity:1;stroke-dasharray:none;stroke-dashoffset:0" />
    <path
       sodipodi:nodetypes="ssccssssss"
       inkscape:connector-curvature="0"
       id="path4020"
       d="m 516.42858,92.875618 126.42857,0 c 14.30644,0 28.10224,11.111682 28.10224,11.111682 0,0 13.57144,9.14081 17.61205,19.60261 l 0,190 c 0,7.51857 -6.05285,13.57143 -13.57143,13.57143 l -158.57143,0 c -7.51857,0 -13.57143,-6.05286 -13.57143,-13.57143 l 0,-207.14286 c 0,-7.518575 6.05286,-13.571432 13.57143,-13.571432 z"
       style="fill:#ffffff;fill-opacity:1;stroke:#000000;stroke-width:12;stroke-linecap:butt;stroke-linejoin:miter;stroke-miterlimit:4;stroke-opacity:1;stroke-dashoffset:0" />
    <path
       sodipodi:nodetypes="ccc"
       inkscape:connector-curvature="0"
       id="path4022"
       d="m 642.14286,95.018475 c 15,24.285725 -4.28572,47.142865 -4.28572,47.142865 27.92012,-1.04683 39.07315,-7.41152 50.71429,-22.85715"
       style="fill:none;stroke:#000000;stroke-width:12;stroke-linecap:butt;stroke-linejoin:miter;stroke-miterlimit:4;stroke-opacity:1;stroke-dasharray:none" />
    <g
       id="g4849"
       transform="translate(0.9924993,-12.644589)">
      <path
         style="fill:#0077ff;fill-opacity:1;fill-rule:evenodd;stroke:#000000;stroke-width:9.39618149pt;stroke-opacity:1"
         d="m 595.9028,351.96204 57.08827,-66.88706 -33.87248,0 0.10699,-79.72436 -47.98071,0 0,79.72436 -32.43033,0 z"
         id="path4855"
         inkscape:connector-curvature="0"
         sodipodi:nodetypes="cccccccc" />
    </g>
  </g>
</svg>
