<?xml version="1.0" encoding="UTF-8" standalone="no"?>
<!-- Created with Inkscape (http://www.inkscape.org/) -->

<svg
   xmlns:dc="http://purl.org/dc/elements/1.1/"
   xmlns:cc="http://creativecommons.org/ns#"
   xmlns:rdf="http://www.w3.org/1999/02/22-rdf-syntax-ns#"
   xmlns:svg="http://www.w3.org/2000/svg"
   xmlns="http://www.w3.org/2000/svg"
   xmlns:sodipodi="http://sodipodi.sourceforge.net/DTD/sodipodi-0.dtd"
   xmlns:inkscape="http://www.inkscape.org/namespaces/inkscape"
   sodipodi:docname="document_open.svg"
   inkscape:version="0.48.3.1 r9886"
   version="1.1"
   id="svg4910"
   height="64px"
   width="64px">
  <sodipodi:namedview
     id="base"
     pagecolor="#ffffff"
     bordercolor="#666666"
     borderopacity="1.0"
     inkscape:pageopacity="0.0"
     inkscape:pageshadow="2"
     inkscape:zoom="5.5"
     inkscape:cx="48.687498"
     inkscape:cy="29.68189"
     inkscape:current-layer="layer1"
     showgrid="true"
     inkscape:document-units="px"
     inkscape:grid-bbox="true"
     inkscape:window-width="1366"
     inkscape:window-height="719"
     inkscape:window-x="0"
     inkscape:window-y="29"
     inkscape:window-maximized="1" />
  <defs
     id="defs4912" />
  <metadata
     id="metadata4915">
    <rdf:RDF>
      <cc:Work
         rdf:about="">
        <dc:format>image/svg+xml</dc:format>
        <dc:type
           rdf:resource="http://purl.org/dc/dcmitype/StillImage" />
        <dc:title />
      </cc:Work>
    </rdf:RDF>
  </metadata>
  <g
     id="layer1"
     inkscape:label="Layer 1"
     inkscape:groupmode="layer">
    <path
       style="stroke-linejoin:miter;stroke-opacity:1;fill-opacity:1;stroke-dashoffset:0;stroke:#000000;stroke-linecap:butt;stroke-miterlimit:4;stroke-dasharray:none;stroke-width:3.0;fill:#ffffff"
       d="M13.5 2.5L42.9030162569 2.5C46.2142422231 2.5 49.4072834106 5.29728096456 49.4072834106 5.29728096456C49.4236889188 5.29728096456 52.5648006745 7.59841058351 53.5 10.2320872256L53.5 58.0631383347C53.4835944918 59.9762374994 52.0826621558 61.5 50.342484747 61.5L13.6411087393 61.5C11.9009343469 61.4796441068 10.5 59.9558816062 10.5 58.0631383347L10.5 5.91650285242C10.3588912607 4.02375937956 11.7598256076 2.5 13.5 2.5Z"
       id="rect2985"
       inkscape:connector-curvature="0"
       sodipodi:nodetypes="ssccssssss"
       transform="matrix(1.000000,0.000000,0.000000,1.000000,0.000000,0.000000)" />
    <path
       style="stroke-linejoin:miter;stroke-opacity:1;stroke:#000000;stroke-linecap:butt;stroke-miterlimit:4;stroke-dasharray:none;stroke-width:3.0;fill:none"
       d="M42.5084545495 2.5C46.0380367839 8.65964940485 41.5 14.456965734 41.5 14.456965734C48.0697557577 14.1914569369 50.69412528 12.5771637752 53.4333500432 8.65964544891"
       id="path3757"
       inkscape:connector-curvature="0"
       sodipodi:nodetypes="ccc"
       transform="matrix(1.000000,0.000000,0.000000,1.000000,0.000000,0.000000)" />
    <g
       transform="matrix(0.18670686,-0.1541312,0.1418927,0.20281066,-124.87901,71.270801)"
       id="g6337-1-3"
       style="fill:#000080;stroke-width:12;stroke-miterlimit:4;stroke-dasharray:none">
      <path
         sodipodi:nodetypes="ccccsccc"
         inkscape:connector-curvature="0"
         id="path6339-1-2"
         d="m 611.45114,357.62931 57.08827,-66.88706 -33.87248,0 c 0,0 9.07596,-67.00892 -71.15538,-109.13711 -0.41888,0.13016 -26.55028,35.00371 -26.55028,35.00371 68.40898,37.75401 49.83194,74.1334 49.83194,74.1334 l -32.43033,0 z"
         style="fill:#000080;fill-opacity:1;fill-rule:evenodd;stroke:#000000;stroke-width:13.28841496;stroke-miterlimit:4;stroke-opacity:1;stroke-dasharray:none" />
    </g>
  </g>
</svg>
