<?xml version="1.0" encoding="UTF-8" standalone="no"?>
<!-- Created with Inkscape (http://www.inkscape.org/) -->

<svg
   xmlns:dc="http://purl.org/dc/elements/1.1/"
   xmlns:cc="http://creativecommons.org/ns#"
   xmlns:rdf="http://www.w3.org/1999/02/22-rdf-syntax-ns#"
   xmlns:svg="http://www.w3.org/2000/svg"
   xmlns="http://www.w3.org/2000/svg"
   xmlns:sodipodi="http://sodipodi.sourceforge.net/DTD/sodipodi-0.dtd"
   xmlns:inkscape="http://www.inkscape.org/namespaces/inkscape"
   width="64px"
   height="64px"
   id="svg4781"
   version="1.1"
   inkscape:version="0.48.3.1 r9886"
   sodipodi:docname="project_close.svg">
  <sodipodi:namedview
     id="base"
     pagecolor="#ffffff"
     bordercolor="#666666"
     borderopacity="1.0"
     inkscape:pageopacity="0.0"
     inkscape:pageshadow="2"
     inkscape:zoom="5.5"
     inkscape:cx="32"
     inkscape:cy="32"
     inkscape:current-layer="layer1"
     showgrid="true"
     inkscape:document-units="px"
     inkscape:grid-bbox="true"
     inkscape:window-width="1366"
     inkscape:window-height="719"
     inkscape:window-x="0"
     inkscape:window-y="29"
     inkscape:window-maximized="1" />
  <defs
     id="defs4783" />
  <metadata
     id="metadata4786">
    <rdf:RDF>
      <cc:Work
         rdf:about="">
        <dc:format>image/svg+xml</dc:format>
        <dc:type
           rdf:resource="http://purl.org/dc/dcmitype/StillImage" />
        <dc:title />
      </cc:Work>
    </rdf:RDF>
  </metadata>
  <g
     inkscape:groupmode="layer"
     inkscape:label="Layer 1"
     id="layer1">
    <path
       transform="matrix(1.000000,0.000000,0.000000,1.000000,0.000000,0.000000)"
       sodipodi:nodetypes="sssccccssssss"
       inkscape:connector-curvature="0"
       id="rect3959-1-8"
       d="M13.5 2.5L50.3619390796 2.5C52.1029610934 2.5 53.5045791947 4.02371547438 53.5045791947 5.91640023874L53.7209103216 12.1172622355L58.5 15.6021076349L58.5 27.0285552822L53.5 30.085848617L53.5 58.0614173267C53.5045791947 59.9762845256 52.1029610934 61.5 50.3619390796 61.5L13.6426471613 61.5C11.9016211212 61.4778183714 10.5 59.954102897 10.5 58.0614173267L10.5 5.91640023874C10.3573528387 4.02371547438 11.7589739599 2.5 13.5 2.5Z"
       style="stroke-linejoin:miter;stroke-opacity:1;fill-opacity:1;stroke-dashoffset:0;stroke:#000000;stroke-linecap:butt;stroke-miterlimit:4;stroke-dasharray:none;stroke-width:3.0;fill:#d38d5f" />
    <path
       transform="matrix(1.000000,0.000000,0.000000,1.000000,0.000000,0.000000)"
       style="stroke-linejoin:miter;stroke-opacity:1;fill-opacity:1;stroke-dashoffset:0;stroke:#000000;stroke-linecap:square;stroke-miterlimit:4;stroke-dasharray:none;stroke-width:3.0;fill:#ff0000"
       d="M30.5 31.5L22.9790104104 39.9605086203L15.3482544809 31.5L9.5 37.9841863389L17.1307367696 46.4446990124L9.58231789753 54.8139334417L15.4943657708 61.368840382L23.042783948 52.9996059527L30.6735200227 61.4601277458L36.521783736 54.9759282342L28.8910377339 46.515406441L36.4394559111 38.1461811313L30.5 31.5Z"
       id="path6352"
       inkscape:connector-curvature="0" />
  </g>
</svg>
