<?xml version="1.0" encoding="UTF-8" standalone="no"?>
<!-- Created with Inkscape (http://www.inkscape.org/) -->

<svg
   xmlns:dc="http://purl.org/dc/elements/1.1/"
   xmlns:cc="http://creativecommons.org/ns#"
   xmlns:rdf="http://www.w3.org/1999/02/22-rdf-syntax-ns#"
   xmlns:svg="http://www.w3.org/2000/svg"
   xmlns="http://www.w3.org/2000/svg"
   xmlns:sodipodi="http://sodipodi.sourceforge.net/DTD/sodipodi-0.dtd"
   xmlns:inkscape="http://www.inkscape.org/namespaces/inkscape"
   width="64px"
   height="64px"
   id="svg4960"
   version="1.1"
   inkscape:version="0.48.3.1 r9886"
   sodipodi:docname="project_open.svg">
  <sodipodi:namedview
     id="base"
     pagecolor="#ffffff"
     bordercolor="#666666"
     borderopacity="1.0"
     inkscape:pageopacity="0.0"
     inkscape:pageshadow="2"
     inkscape:zoom="5.5"
     inkscape:cx="32"
     inkscape:cy="32"
     inkscape:current-layer="layer1"
     showgrid="true"
     inkscape:document-units="px"
     inkscape:grid-bbox="true"
     inkscape:window-width="1366"
     inkscape:window-height="719"
     inkscape:window-x="0"
     inkscape:window-y="29"
     inkscape:window-maximized="1" />
  <defs
     id="defs4962" />
  <metadata
     id="metadata4965">
    <rdf:RDF>
      <cc:Work
         rdf:about="">
        <dc:format>image/svg+xml</dc:format>
        <dc:type
           rdf:resource="http://purl.org/dc/dcmitype/StillImage" />
        <dc:title />
      </cc:Work>
    </rdf:RDF>
  </metadata>
  <g
     inkscape:groupmode="layer"
     inkscape:label="Layer 1"
     id="layer1">
    <path
       transform="matrix(1.000000,0.000000,0.000000,1.000000,0.000000,0.000000)"
       sodipodi:nodetypes="sssccccssssss"
       inkscape:connector-curvature="0"
       id="rect3959-1-8"
       d="M13.5 2.5L50.3619390796 2.5C52.1029610934 2.5 53.5045791947 4.02371547438 53.5045791947 5.91640023874L53.7209103216 12.1172622355L58.5 15.6021076349L58.5 27.0285552822L53.5 30.085848617L53.5 58.0614173267C53.5045791947 59.9762845256 52.1029610934 61.5 50.3619390796 61.5L13.6426471613 61.5C11.9016211212 61.4778183714 10.5 59.954102897 10.5 58.0614173267L10.5 5.91640023874C10.3573528387 4.02371547438 11.7589739599 2.5 13.5 2.5Z"
       style="stroke-linejoin:miter;stroke-opacity:1;fill-opacity:1;stroke-dashoffset:0;stroke:#000000;stroke-linecap:butt;stroke-miterlimit:4;stroke-dasharray:none;stroke-width:3.0;fill:#d38d5f" />
    <g
       style="fill:#000080;stroke-width:12;stroke-miterlimit:4;stroke-dasharray:none"
       id="g6337-1-3"
       transform="matrix(0.18670686,-0.1541312,0.1418927,0.20281066,-124.87901,71.270801)">
      <path
         transform="matrix(1.000000,0.000000,0.000000,1.000000,0.000000,0.000000)"
         style="fill:#000080;fill-opacity:1;fill-rule:evenodd;stroke:#000000;stroke-width:13.28841496;stroke-miterlimit:4;stroke-opacity:1;stroke-dasharray:none"
         d="m 611.45114,357.62931 57.08827,-66.88706 -33.87248,0 c 0,0 9.07596,-67.00892 -71.15538,-109.13711 -0.41888,0.13016 -26.55028,35.00371 -26.55028,35.00371 68.40898,37.75401 49.83194,74.1334 49.83194,74.1334 l -32.43033,0 z"
         id="path6339-1-2"
         inkscape:connector-curvature="0"
         sodipodi:nodetypes="ccccsccc" />
    </g>
  </g>
</svg>
